<svg width="48" height="48" viewBox="0 0 48 48" fill="none" xmlns="http://www.w3.org/2000/svg">
<path d="M31.5 41C31.5 41.4538 31.2896 42.0152 30.6411 42.6657C29.9866 43.3221 28.9642 43.9823 27.5814 44.5689C24.8217 45.7397 20.9048 46.5 16.5 46.5C12.0952 46.5 8.1783 45.7397 5.41856 44.5689C4.03581 43.9823 3.01341 43.3221 2.35891 42.6657C1.71042 42.0152 1.5 41.4538 1.5 41C1.5 40.5462 1.71042 39.9848 2.35891 39.3343C3.01341 38.6779 4.03581 38.0177 5.41856 37.4311C8.1783 36.2603 12.0952 35.5 16.5 35.5C20.9048 35.5 24.8217 36.2603 27.5814 37.4311C28.9642 38.0177 29.9866 38.6779 30.6411 39.3343C31.2896 39.9848 31.5 40.5462 31.5 41Z" stroke="#152C5B" stroke-width="3"/>
<path d="M29.5 12.5C29.5 15.101 28.3125 22.0412 25.9011 28.3363C24.6996 31.4729 23.2355 34.3368 21.5455 36.3896C19.8471 38.4527 18.0926 39.5 16.2941 39.5C14.4945 39.5 12.734 38.4515 11.0268 36.387C9.3285 34.3333 7.85366 31.4688 6.64137 28.3321C4.20786 22.0357 3 15.0973 3 12.5C3 7.70358 7.3398 1.5 16.2941 1.5C25.2357 1.5 29.5 7.69108 29.5 12.5Z" fill="white" stroke="#152C5B" stroke-width="3"/>
<path d="M21.5 13.5C21.5 16.1587 19.1442 18.5 16 18.5C12.8558 18.5 10.5 16.1587 10.5 13.5C10.5 10.8413 12.8558 8.5 16 8.5C19.1442 8.5 21.5 10.8413 21.5 13.5Z" stroke="#FF498B" stroke-width="3"/>
</svg>
