<svg width="48" height="48" viewBox="0 0 48 48" fill="none" xmlns="http://www.w3.org/2000/svg">
<mask id="path-1-inside-1" fill="white">
<path fill-rule="evenodd" clip-rule="evenodd" d="M17.5936 7C17.2277 7 16.891 7.19989 16.7157 7.52115L16.0014 8.83082C14.5995 11.4009 11.9058 13 8.97821 13H6C2.68629 13 0 15.6863 0 19V36C0 39.3137 2.68629 42 6 42H42C45.3137 42 48 39.3137 48 36V19C48 15.6863 45.3137 13 42 13H40.0218C37.0942 13 34.4005 11.4009 32.9986 8.83082L32.2843 7.52115C32.109 7.19989 31.7723 7 31.4064 7H17.5936Z"/>
</mask>
<path d="M16.7157 7.52115L19.3494 8.9577L19.3494 8.9577L16.7157 7.52115ZM32.2843 7.52115L29.6506 8.9577L29.6506 8.9577L32.2843 7.52115ZM16.0014 8.83082L13.3677 7.39426L16.0014 8.83082ZM19.3494 8.9577C18.999 9.60023 18.3255 10 17.5936 10V4C16.1299 4 14.783 4.79954 14.082 6.0846L19.3494 8.9577ZM18.6351 10.2674L19.3494 8.9577L14.0821 6.08459L13.3677 7.39426L18.6351 10.2674ZM6 16H8.97821V10H6V16ZM3 19C3 17.3431 4.34315 16 6 16V10C1.02944 10 -3 14.0294 -3 19H3ZM3 36V19H-3V36H3ZM6 39C4.34315 39 3 37.6569 3 36H-3C-3 40.9706 1.02944 45 6 45V39ZM42 39H6V45H42V39ZM45 36C45 37.6569 43.6569 39 42 39V45C46.9706 45 51 40.9706 51 36H45ZM45 19V36H51V19H45ZM42 16C43.6569 16 45 17.3431 45 19H51C51 14.0294 46.9706 10 42 10V16ZM40.0218 16H42V10H40.0218V16ZM29.6506 8.9577L30.3649 10.2674L35.6323 7.39426L34.9179 6.08459L29.6506 8.9577ZM31.4064 10C30.6745 10 30.001 9.60023 29.6506 8.9577L34.918 6.0846C34.217 4.79954 32.8701 4 31.4064 4V10ZM17.5936 10H31.4064V4H17.5936V10ZM40.0218 10C38.1921 10 36.5085 9.00056 35.6323 7.39426L30.3649 10.2674C32.2925 13.8012 35.9964 16 40.0218 16V10ZM13.3677 7.39426C12.4915 9.00057 10.8079 10 8.97821 10V16C13.0036 16 16.7075 13.8012 18.6351 10.2674L13.3677 7.39426Z" fill="#152C5B" mask="url(#path-1-inside-1)"/>
<circle cx="24" cy="28" r="6.5" stroke="#FF498B" stroke-width="3"/>
<path d="M41 20C36.8545 20 35.2727 20 35 20" stroke="#152C5B" stroke-width="3" stroke-linecap="round"/>
</svg>
