<svg width="48" height="48" viewBox="0 0 48 48" fill="none" xmlns="http://www.w3.org/2000/svg">
<rect width="48" height="48" fill="white"/>
<rect width="48" height="48" fill="white"/>
<path d="M43 11C37.5 2 34.5 8 32 11" stroke="#FF498B" stroke-width="3" stroke-linecap="round"/>
<path d="M43 11C43 18.6 43 21.5 43 22" stroke="#FF498B" stroke-width="3" stroke-linecap="round"/>
<path d="M38 43C38 45.0727 38 45.8636 38 46" stroke="#152C5B" stroke-width="3" stroke-linecap="round"/>
<path d="M10 43C10 45.0727 10 45.8636 10 46" stroke="#152C5B" stroke-width="3" stroke-linecap="round"/>
<rect x="1.5" y="22.5" width="45" height="6" rx="2.5" stroke="#152C5B" stroke-width="3"/>
<path d="M4.5 28.5H43.5V37.3386C43.5 39.8239 41.4853 41.8386 39 41.8386H9C6.51472 41.8386 4.5 39.8239 4.5 37.3386V28.5Z" stroke="#152C5B" stroke-width="3"/>
</svg>
