<svg width="48" height="48" viewBox="0 0 48 48" fill="none" xmlns="http://www.w3.org/2000/svg">
<rect width="48" height="48" fill="white"/>
<path d="M35 29C34.5926 28.5556 31.3013 25 24.0329 25C16.7646 25 13.4074 28.1111 13 29" stroke="#152C5B" stroke-width="3" stroke-linecap="round"/>
<path d="M40 21C39.4074 20.4444 34.62 16 24.0479 16C13.4757 16 8.59259 19.8889 8 21" stroke="#152C5B" stroke-width="3" stroke-linecap="round"/>
<path d="M44 12C43.2593 11.3333 37.275 6 24.0598 6C10.8446 6 4.74074 10.6667 4 12" stroke="#152C5B" stroke-width="3" stroke-linecap="round"/>
<path d="M29.5 37.5C29.5 40.1587 27.1442 42.5 24 42.5C20.8558 42.5 18.5 40.1587 18.5 37.5C18.5 34.8413 20.8558 32.5 24 32.5C27.1442 32.5 29.5 34.8413 29.5 37.5Z" stroke="#FF498B" stroke-width="3"/>
</svg>
