<svg width="48" height="48" viewBox="0 0 48 48" fill="none" xmlns="http://www.w3.org/2000/svg">
<rect width="48" height="48" fill="white"/>
<rect width="48" height="48" fill="white"/>
<path d="M1.5 22C1.5 23.3807 2.61929 24.5 4 24.5H44C45.3807 24.5 46.5 23.3807 46.5 22V17.5H1.5V22Z" stroke="#152C5B" stroke-width="3"/>
<path d="M6.06066 22.6464C5.74568 22.9614 5.96876 23.5 6.41421 23.5H41.5858C42.0312 23.5 42.2543 22.9614 41.9393 22.6464L40.9393 21.6464C40.8456 21.5527 40.7184 21.5 40.5858 21.5H7.41421C7.28161 21.5 7.15443 21.5527 7.06066 21.6464L6.06066 22.6464Z" stroke="#152C5B"/>
<mask id="path-5-inside-1" fill="white">
<path d="M0 4C0 1.79086 1.79086 0 4 0H44C46.2091 0 48 1.79086 48 4V16.8085C48 17.9131 47.1046 18.8085 46 18.8085H2C0.895431 18.8085 0 17.9131 0 16.8085V4Z"/>
</mask>
<path d="M0 4C0 1.79086 1.79086 0 4 0H44C46.2091 0 48 1.79086 48 4V16.8085C48 17.9131 47.1046 18.8085 46 18.8085H2C0.895431 18.8085 0 17.9131 0 16.8085V4Z" stroke="#152C5B" stroke-width="6" mask="url(#path-5-inside-1)"/>
<path d="M36 13.4699C36 14.0221 35.5523 14.4699 35 14.4699C34.4477 14.4699 34 14.0221 34 13.4699C34 12.9176 34.4477 12.4699 35 12.4699C35.5523 12.4699 36 12.9176 36 13.4699Z" fill="#FF498B"/>
<path d="M39 13.4699C39 14.0221 38.5523 14.4699 38 14.4699C37.4477 14.4699 37 14.0221 37 13.4699C37 12.9176 37.4477 12.4699 38 12.4699C38.5523 12.4699 39 12.9176 39 13.4699Z" fill="#FF498B"/>
<path d="M42 13.4699C42 14.0221 41.5523 14.4699 41 14.4699C40.4477 14.4699 40 14.0221 40 13.4699C40 12.9176 40.4477 12.4699 41 12.4699C41.5523 12.4699 42 12.9176 42 13.4699Z" fill="#FF498B"/>
<path d="M21 7.46986C25.1455 7.46986 26.7273 7.46986 27 7.46986" stroke="#FF498B" stroke-width="2" stroke-linecap="round"/>
<path d="M35.0105 28.7156C35.0334 29.0213 35.2297 31.4777 38.1552 33.95C41.0807 36.4223 43.4193 36.3944 43.8654 36.1988" stroke="#152C5B" stroke-width="3" stroke-linecap="round"/>
<path d="M28.7771 28C28.7689 28.6195 28.7275 33.5951 34.0872 38.1246C39.4469 42.654 44.0824 42.1871 45 41.7099" stroke="#152C5B" stroke-width="3" stroke-linecap="round"/>
<path d="M13 28.7159C12.977 29.0217 12.7805 31.4792 9.85198 33.9526C6.92343 36.426 4.58238 36.3981 4.13582 36.2024" stroke="#152C5B" stroke-width="3" stroke-linecap="round"/>
<path d="M19.24 28C19.2481 28.6197 19.2896 33.5976 13.9243 38.129C8.55891 42.6605 3.91852 42.1934 3.00001 41.7159" stroke="#152C5B" stroke-width="3" stroke-linecap="round"/>
</svg>
